<svg xmlns="http://www.w3.org/2000/svg" viewBox="0 0 1000 240"><defs><style>.cls-1{fill:#f7fff4;}.cls-2{fill:#0a7953;}.cls-3,.cls-7{opacity:0.8;}.cls-4,.cls-5,.cls-7,.cls-8{isolation:isolate;}.cls-5{font-size:60px;font-family:Roboto-Medium, Roboto;font-weight:500;}.cls-6{fill:none;stroke:#006837;stroke-miterlimit:10;stroke-width:3px;}.cls-8{font-size:24px;font-family:KozGoPr6N-Regular-90ms-RKSJ-H, Kozuka Gothic Pr6N;letter-spacing:0.04em;}.cls-9{letter-spacing:0.02em;}.cls-10{letter-spacing:-0.08em;}.cls-11{letter-spacing:-0.07em;}.cls-12{letter-spacing:-0.1em;}.cls-13{letter-spacing:-0.07em;}.cls-14{letter-spacing:-0.44em;}.cls-15{fill:#fafafa;}.cls-16{fill:#004d2c;}.cls-17{fill:#006946;}.cls-18{fill:#fff;}</style></defs><g id="レイヤー_2" data-name="レイヤー 2"><g id="レイヤー_1-2" data-name="レイヤー 1"><rect class="cls-1" width="1000" height="240"/></g><g id="レイヤー_2-2" data-name="レイヤー 2"><polygon class="cls-2" points="752.16 119.17 679.63 126.78 630.12 147.21 619.37 173.97 650.77 198.55 714.36 213.17 789.95 213.17 853.54 198.55 884.95 173.97 874.19 147.21 824.69 126.78 752.16 119.17"/><g id="グループ_1487" data-name="グループ 1487" class="cls-3"><g id="Relief_Market" data-name="Relief Market" class="cls-4"><text class="cls-5" transform="translate(96.05 112.39)">Relief Market</text></g></g><line class="cls-6" x1="99.16" y1="121.67" x2="452.66" y2="121.67"/><g id="正直者が得をしよう_" data-name="正直者が得をしよう " class="cls-7"><text class="cls-8" transform="translate(99.04 165.9)">正直者が<tspan class="cls-9" x="99.84" y="0">得</tspan><tspan class="cls-10" x="124.32" y="0">を</tspan><tspan class="cls-11" x="146.4" y="0">し</tspan><tspan class="cls-12" x="168.72" y="0">よ</tspan><tspan class="cls-13" x="190.32" y="0">う</tspan><tspan class="cls-14" x="212.64" y="0">。</tspan></text></g><path class="cls-2" d="M664,29.91c-.2-.86,1-1.43,1.74-.83,7.51,6.09,25.55,24.32,21,56.18-5.64,40,4,54.56,16,63.45,0,0-16.49-4.18-26.86-19C650.43,93.39,667.53,45.17,664,29.91Z"/><path class="cls-15" d="M669.66,42.4c.94,4.45,1.78,8.91,2.42,13.39s1.19,9,1.55,13.48.57,9,.58,13.52-.15,9-.36,13.54A124.61,124.61,0,0,0,673.8,110a40.45,40.45,0,0,0,3.2,13.52c.48,1.08,1,2.16,1.55,3.19s1.15,2.08,1.78,3.1a48.53,48.53,0,0,0,4.26,5.86,53.42,53.42,0,0,0,11.21,9.81,1.13,1.13,0,0,0,1.42-.16.8.8,0,0,0-.16-1.21h0c-1-.71-2-1.42-2.95-2.17-.48-.37-.94-.75-1.41-1.13s-.93-.77-1.37-1.18a47.49,47.49,0,0,1-5-5.09,48.33,48.33,0,0,1-7.28-11.69,39.81,39.81,0,0,1-2.13-6.38,44.4,44.4,0,0,1-1-6.6,121.16,121.16,0,0,1-.06-13.48c.13-4.53.23-9.07.11-13.62q-.07-3.4-.3-6.81c-.06-1.13-.15-2.26-.24-3.4s-.21-2.26-.33-3.39q-.74-6.78-2-13.51c-.83-4.48-1.81-8.94-3-13.36a.28.28,0,0,0-.32-.18A.24.24,0,0,0,669.66,42.4Z"/><path class="cls-2" d="M681.78,125.59a1.9,1.9,0,0,1-3.1-.53,57.65,57.65,0,0,1,1.45-49.47c9.65-19.32,13-30.71,14.22-36a1.18,1.18,0,0,1,2.24-.22C701.69,50.93,715.13,90.2,681.78,125.59Z"/><path class="cls-15" d="M680.1,124.87H680a.51.51,0,0,1-.51-.53c0-.33.64-33.12,12.84-60.58a.52.52,0,0,1,.95.43c-12.1,27.26-12.74,59.84-12.74,60.17A.52.52,0,0,1,680.1,124.87Z"/><polygon class="cls-16" points="747.22 134.4 744.27 160.82 778.46 160.82 774.01 134.4 747.22 134.4"/><path class="cls-17" d="M687.73,67.4v62.28a9.44,9.44,0,0,0,9.21,9.44c22.74.59,102.31,2,124,1.69a7,7,0,0,0,6.85-6.75c.41-14.47,1.09-49.26-1.42-65.41a7.15,7.15,0,0,0-6.84-6.06c-19.06-.61-103.4-2.55-125-2.06A6.86,6.86,0,0,0,687.73,67.4Z"/><path class="cls-15" d="M691.64,67.09v59.18a5.47,5.47,0,0,0,5.39,5.47l120.76,1.49a5.32,5.32,0,0,0,5.4-5.31l.21-58.64a3.91,3.91,0,0,0-3.81-3.91L696,62.87A4.22,4.22,0,0,0,691.64,67.09Z"/><path class="cls-15" d="M824.1,135.68h0l-132.46-2.25a.19.19,0,0,1-.19-.2.19.19,0,0,1,.19-.19l132.47,2.25a.21.21,0,0,1,.19.2A.19.19,0,0,1,824.1,135.68Z"/><path class="cls-17" d="M785.82,166.23h-50c-1.36,0-2.38-1-2.12-2l.64-2.54a2.08,2.08,0,0,1,2-1.36l48.23-1.5a2.12,2.12,0,0,1,2.19,1.31l1.16,4C788.23,165.23,787.21,166.23,785.82,166.23Z"/><path class="cls-15" d="M691.64,67.09v59.18a5.47,5.47,0,0,0,5.39,5.47l120.76,1.49a5.32,5.32,0,0,0,5.4-5.31l.21-58.64a3.91,3.91,0,0,0-3.81-3.91L696,62.87A4.22,4.22,0,0,0,691.64,67.09Z"/><path class="cls-17" d="M823.37,76.14l0-6.87a3.92,3.92,0,0,0-3.81-3.91L696,62.87a4.19,4.19,0,0,0-4.3,4.22v9Z"/><circle class="cls-18" cx="699.59" cy="70.92" r="1.42"/><circle class="cls-18" cx="704.5" cy="70.92" r="1.42"/><circle class="cls-18" cx="709.25" cy="70.92" r="1.42"/><path class="cls-17" d="M809.08,130.17l-103.73-1.83c-2.53,0-4.57-2.57-4.57-5.67V83.39c0-2.22,1.47-4,3.29-4H808.39c2.08,0,3.77,2.06,3.77,4.61v42.46C812.16,128.52,810.77,130.2,809.08,130.17Z"/><path class="cls-2" d="M812.16,84v42.47c0,2.07-1.39,3.74-3.08,3.71l-52.92-.93V79.38h52.23C810.47,79.38,812.16,81.44,812.16,84Z"/><rect class="cls-17" x="761.16" y="83.17" width="32" height="8" rx="0.82"/><path class="cls-17" d="M668.29,173.6a1.72,1.72,0,0,0,1.71,1.71h92.59a1.72,1.72,0,0,0,1.72-1.71l.77-53.21a3,3,0,0,0-3.14-2.64l-90.49-2.34a4.32,4.32,0,0,0-4.43,4.41Z"/><path class="cls-15" d="M670,172a1.63,1.63,0,0,0,1.62,1.62h88.76A1.63,1.63,0,0,0,762,172l.73-48.31a4,4,0,0,0-4.18-3.88l-86.73-2.33a3.06,3.06,0,0,0-2.22.88,3,3,0,0,0-.89,2.22Z"/><rect class="cls-16" x="660.78" y="175.05" width="109.16" height="4.68" rx="2.11" transform="translate(1430.72 354.78) rotate(-180)"/><path class="cls-17" d="M762.64,128.53l.07-4.84a4,4,0,0,0-4.18-3.91l-86.73-2.33a3,3,0,0,0-2.22.88,3.06,3.06,0,0,0-.89,2.24l.2,8Z"/><path class="cls-2" d="M761,149h0a.23.23,0,0,1-.23-.24l.05-3.92a.23.23,0,0,1,.24-.23h0a.24.24,0,0,1,.24.24l-.06,3.92A.23.23,0,0,1,761,149Z"/><path class="cls-2" d="M761.16,139.41h0a.23.23,0,0,1-.23-.24l.22-15a2.83,2.83,0,0,0-.81-2.11,4,4,0,0,0-2.62-.9L730,120.42a.24.24,0,0,1-.23-.25.22.22,0,0,1,.24-.23l27.71.75a4.36,4.36,0,0,1,2.95,1,3.25,3.25,0,0,1,1,2.46l-.22,15A.23.23,0,0,1,761.16,139.41Z"/><rect class="cls-2" x="672.62" y="130.89" width="52.99" height="22.25" rx="2.26"/><rect class="cls-2" x="728.38" y="130.89" width="31.69" height="22.25" rx="1.62"/><rect class="cls-2" x="672.62" y="156.37" width="87.44" height="15.1" rx="1.99"/><circle class="cls-15" cx="673.31" cy="122.83" r="1.11"/><circle class="cls-15" cx="677.02" cy="122.94" r="1.11"/><circle class="cls-15" cx="680.48" cy="123.14" r="1.11"/><path class="cls-16" d="M775.23,125.46c-.2,9.32-.84,41.47-.53,52.86a2.14,2.14,0,0,0,1.89,2.22c5.1.2,23.81.69,32.16.28a3.6,3.6,0,0,0,3.15-3.77c.18-9.78.56-37.3-.35-49.91a3,3,0,0,0-2.41-2.86c-5.56-.65-24.35-2.24-31.56-1.69A2.78,2.78,0,0,0,775.23,125.46Z"/><path class="cls-15" d="M777.51,128.32c-.28,7.52-1.15,32.55-.87,41.81a2.46,2.46,0,0,0,2.11,2.52c4.75.33,21,1,28,.39a2.77,2.77,0,0,0,2.31-2.78c.36-7.67,1.37-31,1.11-40.13a2.74,2.74,0,0,0-2.25-2.78c-5.15-.54-22.39-1.83-28.32-1.45A2.36,2.36,0,0,0,777.51,128.32Z"/><path class="cls-2" d="M787.84,124.22h0a.5.5,0,0,0,.44.53c1.2.08,4.6.28,6.11.39a.52.52,0,0,0,.48-.64v-.06a.49.49,0,0,0-.41-.43,49.25,49.25,0,0,0-6.17-.33A.5.5,0,0,0,787.84,124.22Z"/><path class="cls-17" d="M810.16,133c0-1,0-2,0-2.84a2.75,2.75,0,0,0-2.25-2.79c-5.15-.54-22.39-1.83-28.32-1.45a2.37,2.37,0,0,0-2,2.43c0,1.16-.08,2.08-.14,3.9Z"/><path class="cls-2" d="M793.53,149H780.12a1.45,1.45,0,0,1-1.43-1.48V135.76a1.3,1.3,0,0,1,1.32-1.33l13.53.33a1.4,1.4,0,0,1,1.34,1.42v11.44A1.37,1.37,0,0,1,793.53,149Z"/><path class="cls-2" d="M807,149h-9.1a1.82,1.82,0,0,1-1.82-1.82v-11a1.42,1.42,0,0,1,1.42-1.41h9.59a1.43,1.43,0,0,1,1.43,1.42v11.27A1.52,1.52,0,0,1,807,149Z"/><path class="cls-2" d="M807,160.55H779.82a1.62,1.62,0,0,1-1.62-1.62v-6.74a1.31,1.31,0,0,1,1.32-1.31H807a1.53,1.53,0,0,1,1.53,1.52v6.69A1.46,1.46,0,0,1,807,160.55Z"/><path class="cls-2" d="M805.36,171.47l-25.79-.36a1.33,1.33,0,0,1-1.38-1.25v-6.24a1.16,1.16,0,0,1,1.22-1.09h27.13a1.11,1.11,0,0,1,1.17,1l0,5.81A2.23,2.23,0,0,1,805.36,171.47Z"/><circle class="cls-15" cx="780.19" cy="129.91" r="0.91"/><circle class="cls-15" cx="783.23" cy="130" r="0.91"/><circle class="cls-15" cx="786.06" cy="130.16" r="0.91"/><path id="Icon_material-fingerprint" data-name="Icon material-fingerprint" class="cls-17" d="M776.57,102.46a.33.33,0,0,1-.16,0,8.28,8.28,0,0,0-4-1,8.39,8.39,0,0,0-4,1,.36.36,0,0,1-.36-.63h0a9.22,9.22,0,0,1,8.76,0,.36.36,0,0,1,.14.5A.38.38,0,0,1,776.57,102.46Zm-10.37,3.8a.39.39,0,0,1-.21-.06.37.37,0,0,1-.09-.5h0a7.57,7.57,0,0,1,2.72-2.37,8.38,8.38,0,0,1,7.48,0,7.49,7.49,0,0,1,2.71,2.35.37.37,0,0,1-.08.51.38.38,0,0,1-.51-.09,6.74,6.74,0,0,0-2.46-2.13,7.59,7.59,0,0,0-6.81,0,6.88,6.88,0,0,0-2.47,2.14A.29.29,0,0,1,766.2,106.26Zm4.53,8.75a.34.34,0,0,1-.25-.11A7.35,7.35,0,0,1,769,113a6.39,6.39,0,0,1-.76-3.14,4.11,4.11,0,0,1,8.21,0,.38.38,0,0,1-.37.37.37.37,0,0,1-.36-.37,3.39,3.39,0,0,0-6.76,0,5.73,5.73,0,0,0,.68,2.79,6.78,6.78,0,0,0,1.34,1.76.36.36,0,0,1-.27.62Zm5.2-1.34a3.91,3.91,0,0,1-2.25-.64,3.85,3.85,0,0,1-1.72-3.18.36.36,0,1,1,.72,0,3.14,3.14,0,0,0,1.41,2.58,3.22,3.22,0,0,0,1.84.51,4.76,4.76,0,0,0,.75-.07.37.37,0,0,1,.43.29.38.38,0,0,1-.3.43,5.14,5.14,0,0,1-.88.08Zm-1.46,1.5-.09,0a5.56,5.56,0,0,1-2.7-1.52,5.27,5.27,0,0,1-1.57-3.78,2.23,2.23,0,0,1,4.46,0,1.51,1.51,0,0,0,3,0,5.12,5.12,0,0,0-5.26-5,5.29,5.29,0,0,0-4.79,2.93,4.69,4.69,0,0,0-.43,2,7.28,7.28,0,0,0,.49,2.61.36.36,0,0,1-.2.46h0a.36.36,0,0,1-.46-.21h0a8.06,8.06,0,0,1-.53-2.87,5.28,5.28,0,0,1,.49-2.35,6,6,0,0,1,5.44-3.34,5.84,5.84,0,0,1,6,5.68,2.23,2.23,0,0,1-4.46,0,1.51,1.51,0,0,0-3,0,4.58,4.58,0,0,0,1.36,3.27,4.93,4.93,0,0,0,2.37,1.34.36.36,0,0,1,.25.44h0A.37.37,0,0,1,774.47,115.17Z"/><path id="Icon_material-account-circle" data-name="Icon material-account-circle" class="cls-17" d="M789.63,100.91a7.53,7.53,0,1,0,7.53,7.53A7.53,7.53,0,0,0,789.63,100.91Zm0,2.26a2.26,2.26,0,1,1-2.26,2.26,2.26,2.26,0,0,1,2.26-2.26Zm0,10.69a5.41,5.41,0,0,1-4.52-2.43c0-1.49,3-2.32,4.52-2.32s4.49.83,4.51,2.32A5.4,5.4,0,0,1,789.63,113.86Z"/></g></g></svg>